# xmcd
#
# Track frame offsets: 
#        150
#        19735
#        39546
#        60270
#        81008
#        101321
#        120136
#        137934
#        144886
#        153468
#        162882
#        172467
#        198924
#        215354
#        229554
#        242204
#
# Disc length: 3510 seconds
#
# Revision: 0
# Processed by: cddbd v1.5.2PL0 Copyright (c) Steve Scherf et al.
# Submitted via: ExactAudioCopy v0.95b3
#
DISCID=ca0db410
DTITLE=Jimi Hendrix  - Moonbeams and Fairytales - Disc 13
DYEAR=1900
DGENRE=
TTITLE0=The STP With LSD
TTITLE1=The STP With LSD
TTITLE2=The STP With LSD
TTITLE3=The STP With LSD
TTITLE4=The STP With LSD
TTITLE5=Gloomy Monday
TTITLE6=The Burning of the Midnight Lamp
TTITLE7=Summertime Blues
TTITLE8=Fire
TTITLE9=The Wind Cries Mary
TTITLE10=Foxy Lady
TTITLE11=Catfish Blues
TTITLE12=I Don't Live Today
TTITLE13=Red House
TTITLE14=Hey Joe
TTITLE15=Purple Haze
EXTD=
EXTT0=
EXTT1=
EXTT2=
EXTT3=
EXTT4=
EXTT5=
EXTT6=
EXTT7=
EXTT8=
EXTT9=
EXTT10=
EXTT11=
EXTT12=
EXTT13=
EXTT14=
EXTT15=
PLAYORDER=
